<svg xmlns="http://www.w3.org/2000/svg" viewBox="0 0 103.90846 109.156321">
  <defs>
    <linearGradient id="synapseLogoGrad" x1="0.08" y1="0.62" x2="0.9" y2="0.32">
      <stop offset="0" stop-color="#1158F6"/>
      <stop offset="0.5" stop-color="#1E86E4"/>
      <stop offset="1" stop-color="#24D1B5"/>
    </linearGradient>
  </defs>
  <g transform="translate(-19.776089,122.165176) scale(0.1,-0.1)" fill="url(#synapseLogoGrad)" stroke="none">
    <path d="M1060 1200 c-19 -19 -34 -20 -302 -20 -272 0 -285 -1 -339 -23 -145 -60 -220 -172 -221 -330 -1 -67 4 -86 31 -141 39 -79 111 -147 189 -177 48 -19 82 -23 214 -27 138 -4 159 -6 174 -23 17 -19 66 -25 99 -13 17 7 45 54 45 78 0 8 -12 28 -26 45 -32 38 -90 43 -119 11 -17 -18 -31 -20 -171 -20 l-152 0 -64 33 c-102 53 -156 151 -145 268 6 72 35 127 93 178 74 65 107 71 409 71 l262 0 23 -25 c50 -53 140 -16 140 58 0 67 -92 105 -140 57z m78 -58 c3 -16 -2 -22 -17 -22 -24 0 -35 15 -27 36 9 23 40 13 44 -14z m-264 -598 c21 -8 21 -40 0 -48 -21 -8 -34 1 -34 23 0 28 9 34 34 25z"/>
    <path d="M515 885 c-44 -43 -21 -124 40 -139 27 -7 85 17 85 35 0 7 52 10 163 7 153 -3 165 -5 213 -30 91 -48 154 -147 154 -243 0 -89 -68 -215 -116 -215 -14 0 -39 -11 -56 -25 -34 -29 -13 -27 -353 -25 -250 1 -261 2 -283 23 -77 72 -192 -44 -117 -118 30 -31 82 -33 112 -6 20 19 39 20 327 22 271 1 309 0 325 -15 25 -23 86 -21 111 4 20 20 24 35 20 77 0 12 15 45 34 75 124 187 59 420 -144 517 -51 24 -66 26 -217 29 -155 4 -162 5 -184 28 -31 33 -82 32 -114 -1z m81 -70 c-3 -9 -14 -15 -23 -13 -22 4 -30 38 -11 49 18 11 43 -15 34 -36z m478 -571 c20 -8 20 -28 0 -44 -12 -11 -18 -10 -31 3 -13 13 -14 19 -3 31 14 18 13 18 34 10z m-746 -32 c3 -18 -1 -22 -22 -22 -19 0 -26 5 -26 18 0 39 43 43 48 4z"/>
  </g>
</svg>
